<svg class="" width="16" height="16" viewBox="0 0 16 16" fill="none" xmlns="http://www.w3.org/2000/svg"><path d="M1.5 14.5H11.5" stroke="#202020" stroke-miterlimit="10" stroke-linecap="round" stroke-linejoin="round"></path><path d="M2 5.5V8.6C2 11 4 13 6.5 13C9 13 11 11 11 8.6V5.5H2Z" stroke="#202020" stroke-miterlimit="10" stroke-linecap="round" stroke-linejoin="round"></path><path d="M12.5 10.5C11.65 10.5 11 9.85 11 9V7.5C11 6.7 11.65 6 12.5 6C13.3 6 14 6.65 14 7.5V9C14 9.85 13.35 10.5 12.5 10.5Z" stroke="#202020" stroke-miterlimit="10" stroke-linecap="round" stroke-linejoin="round"></path><path d="M6.50078 1C5.90078 1.9 5.90078 3.1 6.50078 4" stroke="#202020" stroke-miterlimit="10" stroke-linecap="round" stroke-linejoin="round"></path><path d="M4.50078 1C3.90078 1.9 3.90078 3.1 4.50078 4" stroke="#202020" stroke-miterlimit="10" stroke-linecap="round" stroke-linejoin="round"></path><path d="M8.50078 1C7.90078 1.9 7.90078 3.1 8.50078 4" stroke="#202020" stroke-miterlimit="10" stroke-linecap="round" stroke-linejoin="round"></path></svg>