<svg class="" width="16" height="16" viewBox="0 0 16 16" fill="none" xmlns="http://www.w3.org/2000/svg"><g clip-path="url(#clip0_6_35)"><path d="M14.25 2.7609V1.5C14.25 1.30109 14.171 1.11032 14.0303 0.96967C13.8897 0.829018 13.6989 0.75 13.5 0.75C13.3011 0.75 13.1103 0.829018 12.9697 0.96967C12.829 1.11032 12.75 1.30109 12.75 1.5V2.75H12.25V1.5C12.25 1.30109 12.171 1.11032 12.0303 0.96967C11.8897 0.829018 11.6989 0.75 11.5 0.75C11.3011 0.75 11.1103 0.829018 10.9697 0.96967C10.829 1.11032 10.75 1.30109 10.75 1.5V2.75H1.8579C1.56418 2.75036 1.28259 2.8672 1.07489 3.07489C0.867197 3.28259 0.750357 3.56418 0.75 3.8579V12.1421C0.750357 12.4358 0.867197 12.7174 1.07489 12.9251C1.28259 13.1328 1.56418 13.2496 1.8579 13.25H10.75V15C10.75 15.0663 10.7763 15.1299 10.8232 15.1768C10.8701 15.2237 10.9337 15.25 11 15.25H12C12.0663 15.25 12.1299 15.2237 12.1768 15.1768C12.2237 15.1299 12.25 15.0663 12.25 15V13.25H12.75V15C12.75 15.0663 12.7763 15.1299 12.8232 15.1768C12.8701 15.2237 12.9337 15.25 13 15.25H14C14.0663 15.25 14.1299 15.2237 14.1768 15.1768C14.2237 15.1299 14.25 15.0663 14.25 15V13.2391C14.5231 13.2129 14.7766 13.0861 14.9615 12.8834C15.1463 12.6806 15.2491 12.4164 15.25 12.1421V3.8579C15.2491 3.58358 15.1463 3.31938 14.9615 3.11665C14.7766 2.91391 14.5231 2.78712 14.25 2.7609V2.7609ZM13.25 1.5C13.25 1.4337 13.2763 1.37011 13.3232 1.32322C13.3701 1.27634 13.4337 1.25 13.5 1.25C13.5663 1.25 13.6299 1.27634 13.6768 1.32322C13.7237 1.37011 13.75 1.4337 13.75 1.5C13.75 2.4319 13.75 8.67087 13.75 9.75H13.25V1.5ZM12.75 7.75H12.25V4.25H12.75V7.75ZM12.25 8.25H12.75V11.75H12.25V8.25ZM12.75 3.25V3.75H12.25V3.25H12.75ZM11.25 1.5C11.25 1.4337 11.2763 1.37011 11.3232 1.32322C11.3701 1.27634 11.4337 1.25 11.5 1.25C11.5663 1.25 11.6299 1.27634 11.6768 1.32322C11.7237 1.37011 11.75 1.4337 11.75 1.5V3C11.75 4.70938 11.75 8.05128 11.75 9.75H11.25V1.5ZM9.25 4.25H10.75V7.75H9.25V4.25ZM8.75 8V11.75H2.25V4.25H8.75V8ZM9.25 8.25H10.75V11.75H9.25V8.25ZM1.8579 12.75C1.69673 12.7498 1.54221 12.6857 1.42825 12.5718C1.31428 12.4578 1.25018 12.3033 1.25 12.1421V3.8579C1.25018 3.69673 1.31428 3.54221 1.42825 3.42825C1.54221 3.31428 1.69673 3.25018 1.8579 3.25H10.75V3.75C9.63895 3.75187 3.255 3.74865 2 3.75C1.9337 3.75 1.87011 3.77634 1.82322 3.82322C1.77634 3.87011 1.75 3.9337 1.75 4V12C1.75 12.0663 1.77634 12.1299 1.82322 12.1768C1.87011 12.2237 1.9337 12.25 2 12.25C3.29027 12.2508 9.60022 12.2495 10.75 12.25V12.75H1.8579ZM11.75 14.75H11.25V10.25H11.75V14.75ZM12.25 12.75V12.25H12.75V12.75H12.25ZM13.75 14.75H13.25V10.25H13.75V14.75ZM14.75 12.1421C14.7498 12.2846 14.6996 12.4224 14.6083 12.5318C14.5169 12.6411 14.3902 12.7149 14.25 12.7405V3.25953C14.3902 3.28506 14.5169 3.35891 14.6083 3.46823C14.6996 3.57755 14.7498 3.71543 14.75 3.8579V12.1421Z" fill="#202020"></path><path d="M3.5 6.25C3.69885 6.24978 3.88948 6.17069 4.03009 6.03009C4.17069 5.88948 4.24978 5.69885 4.25 5.5C4.25 5.4337 4.22366 5.37011 4.17678 5.32322C4.12989 5.27634 4.0663 5.25 4 5.25C3.9337 5.25 3.87011 5.27634 3.82322 5.32322C3.77634 5.37011 3.75 5.4337 3.75 5.5C3.75 5.5663 3.72366 5.62989 3.67678 5.67678C3.62989 5.72366 3.5663 5.75 3.5 5.75C3.4337 5.75 3.37011 5.72366 3.32322 5.67678C3.27634 5.62989 3.25 5.5663 3.25 5.5C3.25 5.4337 3.22366 5.37011 3.17678 5.32322C3.12989 5.27634 3.0663 5.25 3 5.25C2.9337 5.25 2.87011 5.27634 2.82322 5.32322C2.77634 5.37011 2.75 5.4337 2.75 5.5C2.75022 5.69885 2.82931 5.88948 2.96991 6.03009C3.11052 6.17069 3.30115 6.24978 3.5 6.25Z" fill="#202020"></path><path d="M5.5 6.25C5.69885 6.24978 5.88948 6.17069 6.03009 6.03009C6.17069 5.88948 6.24978 5.69885 6.25 5.5C6.25 5.4337 6.22366 5.37011 6.17678 5.32322C6.12989 5.27634 6.0663 5.25 6 5.25C5.9337 5.25 5.87011 5.27634 5.82322 5.32322C5.77634 5.37011 5.75 5.4337 5.75 5.5C5.75 5.5663 5.72366 5.62989 5.67678 5.67678C5.62989 5.72366 5.5663 5.75 5.5 5.75C5.4337 5.75 5.37011 5.72366 5.32322 5.67678C5.27634 5.62989 5.25 5.5663 5.25 5.5C5.25 5.4337 5.22366 5.37011 5.17678 5.32322C5.12989 5.27634 5.0663 5.25 5 5.25C4.9337 5.25 4.87011 5.27634 4.82322 5.32322C4.77634 5.37011 4.75 5.4337 4.75 5.5C4.75022 5.69885 4.82931 5.88948 4.96991 6.03009C5.11052 6.17069 5.30115 6.24978 5.5 6.25V6.25Z" fill="#202020"></path><path d="M4 6.75C3.9337 6.75 3.87011 6.77634 3.82322 6.82322C3.77634 6.87011 3.75 6.9337 3.75 7C3.75 7.19891 3.82902 7.38968 3.96967 7.53033C4.11032 7.67098 4.30109 7.75 4.5 7.75C4.69891 7.75 4.88968 7.67098 5.03033 7.53033C5.17098 7.38968 5.25 7.19891 5.25 7C5.25 6.9337 5.22366 6.87011 5.17678 6.82322C5.12989 6.77634 5.0663 6.75 5 6.75C4.9337 6.75 4.87011 6.77634 4.82322 6.82322C4.77634 6.87011 4.75 6.9337 4.75 7C4.75 7.0663 4.72366 7.12989 4.67678 7.17678C4.62989 7.22366 4.5663 7.25 4.5 7.25C4.4337 7.25 4.37011 7.22366 4.32322 7.17678C4.27634 7.12989 4.25 7.0663 4.25 7C4.25 6.9337 4.22366 6.87011 4.17678 6.82322C4.12989 6.77634 4.0663 6.75 4 6.75Z" fill="#202020"></path><path d="M6 6.75C5.9337 6.75 5.87011 6.77634 5.82322 6.82322C5.77634 6.87011 5.75 6.9337 5.75 7C5.75 7.19891 5.82902 7.38968 5.96967 7.53033C6.11032 7.67098 6.30109 7.75 6.5 7.75C6.69891 7.75 6.88968 7.67098 7.03033 7.53033C7.17098 7.38968 7.25 7.19891 7.25 7C7.25 6.9337 7.22366 6.87011 7.17678 6.82322C7.12989 6.77634 7.0663 6.75 7 6.75C6.9337 6.75 6.87011 6.77634 6.82322 6.82322C6.77634 6.87011 6.75 6.9337 6.75 7C6.75 7.0663 6.72366 7.12989 6.67678 7.17678C6.62989 7.22366 6.5663 7.25 6.5 7.25C6.4337 7.25 6.37011 7.22366 6.32322 7.17678C6.27634 7.12989 6.25 7.0663 6.25 7C6.25 6.9337 6.22366 6.87011 6.17678 6.82322C6.12989 6.77634 6.0663 6.75 6 6.75Z" fill="#202020"></path><path d="M7.5 6.25C7.69885 6.24978 7.88948 6.17069 8.03009 6.03009C8.17069 5.88948 8.24978 5.69885 8.25 5.5C8.25 5.4337 8.22366 5.37011 8.17678 5.32322C8.12989 5.27634 8.0663 5.25 8 5.25C7.9337 5.25 7.87011 5.27634 7.82322 5.32322C7.77634 5.37011 7.75 5.4337 7.75 5.5C7.75 5.5663 7.72366 5.62989 7.67678 5.67678C7.62989 5.72366 7.5663 5.75 7.5 5.75C7.4337 5.75 7.37011 5.72366 7.32322 5.67678C7.27634 5.62989 7.25 5.5663 7.25 5.5C7.25 5.4337 7.22366 5.37011 7.17678 5.32322C7.12989 5.27634 7.0663 5.25 7 5.25C6.9337 5.25 6.87011 5.27634 6.82322 5.32322C6.77634 5.37011 6.75 5.4337 6.75 5.5C6.75022 5.69885 6.82931 5.88948 6.96991 6.03009C7.11052 6.17069 7.30115 6.24978 7.5 6.25Z" fill="#202020"></path><path d="M3.5 9.25C3.69885 9.24978 3.88948 9.17069 4.03009 9.03009C4.17069 8.88948 4.24978 8.69885 4.25 8.5C4.25 8.4337 4.22366 8.37011 4.17678 8.32322C4.12989 8.27634 4.0663 8.25 4 8.25C3.9337 8.25 3.87011 8.27634 3.82322 8.32322C3.77634 8.37011 3.75 8.4337 3.75 8.5C3.75 8.5663 3.72366 8.62989 3.67678 8.67678C3.62989 8.72366 3.5663 8.75 3.5 8.75C3.4337 8.75 3.37011 8.72366 3.32322 8.67678C3.27634 8.62989 3.25 8.5663 3.25 8.5C3.25 8.4337 3.22366 8.37011 3.17678 8.32322C3.12989 8.27634 3.0663 8.25 3 8.25C2.9337 8.25 2.87011 8.27634 2.82322 8.32322C2.77634 8.37011 2.75 8.4337 2.75 8.5C2.75022 8.69885 2.82931 8.88948 2.96991 9.03009C3.11052 9.17069 3.30115 9.24978 3.5 9.25V9.25Z" fill="#202020"></path><path d="M6.25 8.5C6.25 8.4337 6.22366 8.37011 6.17678 8.32322C6.12989 8.27634 6.0663 8.25 6 8.25C5.9337 8.25 5.87011 8.27634 5.82322 8.32322C5.77634 8.37011 5.75 8.4337 5.75 8.5C5.75 8.5663 5.72366 8.62989 5.67678 8.67678C5.62989 8.72366 5.5663 8.75 5.5 8.75C5.4337 8.75 5.37011 8.72366 5.32322 8.67678C5.27634 8.62989 5.25 8.5663 5.25 8.5C5.25 8.4337 5.22366 8.37011 5.17678 8.32322C5.12989 8.27634 5.0663 8.25 5 8.25C4.9337 8.25 4.87011 8.27634 4.82322 8.32322C4.77634 8.37011 4.75 8.4337 4.75 8.5C4.75 8.69891 4.82902 8.88968 4.96967 9.03033C5.11032 9.17098 5.30109 9.25 5.5 9.25C5.69891 9.25 5.88968 9.17098 6.03033 9.03033C6.17098 8.88968 6.25 8.69891 6.25 8.5V8.5Z" fill="#202020"></path><path d="M5 9.75C4.9337 9.75 4.87011 9.77634 4.82322 9.82322C4.77634 9.87011 4.75 9.9337 4.75 10C4.75 10.0663 4.72366 10.1299 4.67678 10.1768C4.62989 10.2237 4.5663 10.25 4.5 10.25C4.4337 10.25 4.37011 10.2237 4.32322 10.1768C4.27634 10.1299 4.25 10.0663 4.25 10C4.25 9.9337 4.22366 9.87011 4.17678 9.82322C4.12989 9.77634 4.0663 9.75 4 9.75C3.9337 9.75 3.87011 9.77634 3.82322 9.82322C3.77634 9.87011 3.75 9.9337 3.75 10C3.75 10.1989 3.82902 10.3897 3.96967 10.5303C4.11032 10.671 4.30109 10.75 4.5 10.75C4.69891 10.75 4.88968 10.671 5.03033 10.5303C5.17098 10.3897 5.25 10.1989 5.25 10C5.25 9.9337 5.22366 9.87011 5.17678 9.82322C5.12989 9.77634 5.0663 9.75 5 9.75Z" fill="#202020"></path><path d="M7 9.75C6.9337 9.75 6.87011 9.77634 6.82322 9.82322C6.77634 9.87011 6.75 9.9337 6.75 10C6.75 10.0663 6.72366 10.1299 6.67678 10.1768C6.62989 10.2237 6.5663 10.25 6.5 10.25C6.4337 10.25 6.37011 10.2237 6.32322 10.1768C6.27634 10.1299 6.25 10.0663 6.25 10C6.25 9.9337 6.22366 9.87011 6.17678 9.82322C6.12989 9.77634 6.0663 9.75 6 9.75C5.9337 9.75 5.87011 9.77634 5.82322 9.82322C5.77634 9.87011 5.75 9.9337 5.75 10C5.75 10.1989 5.82902 10.3897 5.96967 10.5303C6.11032 10.671 6.30109 10.75 6.5 10.75C6.69891 10.75 6.88968 10.671 7.03033 10.5303C7.17098 10.3897 7.25 10.1989 7.25 10C7.25 9.9337 7.22366 9.87011 7.17678 9.82322C7.12989 9.77634 7.0663 9.75 7 9.75Z" fill="#202020"></path><path d="M8 8.25C7.9337 8.25 7.87011 8.27634 7.82322 8.32322C7.77634 8.37011 7.75 8.4337 7.75 8.5C7.75 8.5663 7.72366 8.62989 7.67678 8.67678C7.62989 8.72366 7.5663 8.75 7.5 8.75C7.4337 8.75 7.37011 8.72366 7.32322 8.67678C7.27634 8.62989 7.25 8.5663 7.25 8.5C7.25 8.4337 7.22366 8.37011 7.17678 8.32322C7.12989 8.27634 7.0663 8.25 7 8.25C6.9337 8.25 6.87011 8.27634 6.82322 8.32322C6.77634 8.37011 6.75 8.4337 6.75 8.5C6.75 8.69891 6.82902 8.88968 6.96967 9.03033C7.11032 9.17098 7.30109 9.25 7.5 9.25C7.69891 9.25 7.88968 9.17098 8.03033 9.03033C8.17098 8.88968 8.25 8.69891 8.25 8.5C8.25 8.4337 8.22366 8.37011 8.17678 8.32322C8.12989 8.27634 8.0663 8.25 8 8.25Z" fill="#202020"></path></g><defs><clipPath id="clip0_6_35"><rect width="16" height="16" fill="white"></rect></clipPath></defs></svg>