<svg width="16" height="16" viewBox="0 0 16 16" fill="none" xmlns="http://www.w3.org/2000/svg"><path d="M10.5 6C10.3646 6 10.2474 5.95052 10.1484 5.85156C10.0495 5.7526 10 5.63542 10 5.5C10 5.36458 10.0495 5.2474 10.1484 5.14844C10.2474 5.04948 10.3646 5 10.5 5C10.6354 5 10.7526 5.04948 10.8516 5.14844C10.9505 5.2474 11 5.36458 11 5.5C11 5.63542 10.9505 5.7526 10.8516 5.85156C10.7526 5.95052 10.6354 6 10.5 6ZM15.1484 14.8516L13.0938 12.8047C12.8698 13.0234 12.6432 13.2292 12.4141 13.4219C12.1849 13.6146 11.9375 13.7943 11.6719 13.9609L12.8516 15.1484L12.1484 15.8516L10.7266 14.4531C9.85677 14.8177 8.94792 15 8 15C7.45312 15 6.91927 14.9401 6.39844 14.8203C5.8776 14.7005 5.3776 14.5208 4.89844 14.2812C4.41927 14.0417 3.97656 13.7552 3.57031 13.4219C3.16406 13.0885 2.78906 12.7005 2.44531 12.2578L0.851562 13.8516L0.148438 13.1484L1.88281 11.4062C1.58594 10.8906 1.36458 10.3438 1.21875 9.76562C1.07292 9.1875 1 8.59896 1 8C1 7.35417 1.08333 6.73438 1.25 6.14062C1.41667 5.54688 1.65104 4.98958 1.95312 4.46875C2.25521 3.94792 2.61979 3.47656 3.04688 3.05469C3.47396 2.63281 3.94531 2.26823 4.46094 1.96094C4.97656 1.65365 5.53385 1.41667 6.13281 1.25C6.73177 1.08333 7.35417 1 8 1C8.64583 1 9.26562 1.08333 9.85938 1.25C10.4531 1.41667 11.0104 1.65104 11.5312 1.95312C12.0521 2.25521 12.5234 2.61979 12.9453 3.04688C13.3672 3.47396 13.7318 3.94531 14.0391 4.46094C14.3464 4.97656 14.5833 5.53385 14.75 6.13281C14.9167 6.73177 15 7.35417 15 8C15 8.72396 14.8932 9.42708 14.6797 10.1094C14.4661 10.7917 14.1484 11.4297 13.7266 12.0234L15.8516 14.1484L15.1484 14.8516ZM2 8C2 8.46354 2.05208 8.91927 2.15625 9.36719C2.26042 9.8151 2.41667 10.2474 2.625 10.6641L5.5 7.79688L8.5 10.7969L10.5 8.79688L13.0078 11.3047C13.3307 10.8099 13.5755 10.2839 13.7422 9.72656C13.9089 9.16927 13.9948 8.59375 14 8C14 7.44792 13.9297 6.91667 13.7891 6.40625C13.6484 5.89583 13.4453 5.41927 13.1797 4.97656C12.9141 4.53385 12.6016 4.1276 12.2422 3.75781C11.8828 3.38802 11.4792 3.07552 11.0312 2.82031C10.5833 2.5651 10.1042 2.36458 9.59375 2.21875C9.08333 2.07292 8.55208 2 8 2C7.44792 2 6.91667 2.07031 6.40625 2.21094C5.89583 2.35156 5.41927 2.55469 4.97656 2.82031C4.53385 3.08594 4.1276 3.39844 3.75781 3.75781C3.38802 4.11719 3.07552 4.52083 2.82031 4.96875C2.5651 5.41667 2.36458 5.89583 2.21875 6.40625C2.07292 6.91667 2 7.44792 2 8ZM8 14C8.67188 14 9.32552 13.8906 9.96094 13.6719L5.5 9.20312L3.16406 11.5469C3.44531 11.9323 3.76562 12.276 4.125 12.5781C4.48438 12.8802 4.86979 13.1354 5.28125 13.3438C5.69271 13.5521 6.13021 13.7135 6.59375 13.8281C7.05729 13.9427 7.52604 14 8 14ZM10.9375 13.2266C11.2083 13.0755 11.4635 12.9062 11.7031 12.7188C11.9427 12.5312 12.1693 12.3229 12.3828 12.0938L10.5 10.2031L9.20312 11.5L10.9375 13.2266Z" fill="#202020"></path></svg>