<svg width="16" height="16" viewBox="0 0 16 16" fill="none" xmlns="http://www.w3.org/2000/svg"><path d="M7.86885 0.0130587C7.80217 0.0264335 7.73548 0.0464954 7.71881 0.0565267C7.18533 0.364146 0.283385 4.49695 0.210031 4.55045C0.0799946 4.64742 -0.0166993 4.88482 0.0133091 5.03863C0.0699917 5.33622 0.346736 5.54019 0.616812 5.47666C0.703503 5.45659 2.14724 4.61398 4.37787 3.27985C6.37177 2.08949 8.02223 1.11982 8.04557 1.12651C8.07224 1.1332 9.71938 2.1129 11.7033 3.30994C15.1442 5.37969 15.3243 5.48334 15.471 5.48C15.6811 5.47666 15.8378 5.38303 15.9311 5.19913C16.0245 5.01188 16.0245 4.91826 15.9311 4.73101C15.8578 4.58389 15.7711 4.53039 12.2368 2.40046C10.2462 1.20007 8.53571 0.176899 8.43568 0.1234C8.23229 0.0130587 8.04557 -0.0237222 7.86885 0.0130587Z" fill="#202020"></path><path d="M0.266742 6.6109C0.206725 6.65437 0.123368 6.73128 0.0866911 6.78143L0.0166714 6.87506L0.00666854 11.2118L0 15.5486L0.073354 15.6991C0.156711 15.8596 0.36677 16 0.533484 16C0.696863 16 0.910256 15.8596 0.993613 15.6991C1.06697 15.5553 1.06697 15.5285 1.06697 14.3716V13.1913H7.74885H14.4341L14.4441 14.4051C14.4541 15.5988 14.4541 15.6155 14.5308 15.7392C14.6108 15.8696 14.8342 16 14.9742 16C15.0942 16 15.341 15.8663 15.4177 15.7559C15.4877 15.6623 15.4877 15.6255 15.4977 13.0208C15.5077 10.0783 15.5077 10.1084 15.2843 9.64698C15.1976 9.47311 15.0909 9.32933 14.9242 9.16214C14.6508 8.8913 14.384 8.73749 14.0173 8.64387C13.7672 8.58034 13.6372 8.577 10.1395 8.577C7.68883 8.577 6.47849 8.59037 6.3918 8.61378C6.32178 8.63384 6.20508 8.70406 6.13173 8.76759C5.87499 9.00165 5.88832 8.9214 5.86832 10.5999L5.85165 12.1046L3.46097 12.1146L1.06697 12.1213L1.0603 9.49986C1.0503 6.89846 1.0503 6.87506 0.980276 6.78143C0.863576 6.62094 0.706866 6.53734 0.533484 6.53734C0.426787 6.53734 0.34343 6.56075 0.266742 6.6109ZM13.9039 9.7172C14.104 9.80748 14.2607 9.96463 14.3574 10.1653C14.4341 10.3291 14.4374 10.3558 14.4374 11.2252V12.1213H10.6697H6.90194V10.8841V9.64698H10.3296C13.7005 9.64698 13.7572 9.65032 13.9039 9.7172Z" fill="#202020"></path><path d="M3.06359 8.47027C2.51344 8.61739 2.08331 9.04873 1.9166 9.63053C1.83991 9.89468 1.86325 10.3895 1.96328 10.6537C2.23336 11.3659 2.9769 11.8073 3.70711 11.6902C4.1639 11.6167 4.63403 11.3091 4.85409 10.9312C5.42092 9.96824 4.92078 8.74111 3.85048 8.46024C3.59707 8.3967 3.34034 8.40005 3.06359 8.47027ZM3.7938 9.57703C3.9405 9.68068 4.03386 9.87462 4.03386 10.0719C4.03053 10.6002 3.39035 10.851 3.05692 10.4531C2.81685 10.1622 2.87687 9.77431 3.2003 9.55362C3.35367 9.44997 3.63375 9.46 3.7938 9.57703Z" fill="#202020"></path></svg>